<?xml version="1.0" encoding="utf-8"?>
<svg viewBox="37.639 55.549 161.427 73.319" xmlns="http://www.w3.org/2000/svg">
  <path d="M 50.62675094604492 106.3320083618164 Q 49.20487594604492 106.3320083618164 47.94804000854492 105.7988052368164 Q 46.69120407104492 105.2656021118164 45.76444625854492 104.3261489868164 Q 44.83768844604492 103.3866958618164 44.29179000854492 102.1425552368164 Q 43.74589157104492 100.8984146118164 43.74589157104492 99.4765396118164 L 43.74589157104492 83.3027114868164 L 39.07401657104492 83.3027114868164 L 39.07401657104492 80.3320083618164 L 43.74589157104492 80.3320083618164 L 43.74589157104492 74.0859146118164 L 46.86893844604492 73.5781021118164 L 46.86893844604492 80.3320083618164 L 53.47050094604492 80.3320083618164 L 53.47050094604492 83.3027114868164 L 46.86893844604492 83.3027114868164 L 46.86893844604492 99.6288833618164 Q 46.86893844604492 100.4159927368164 47.16093063354492 101.0888442993164 Q 47.45292282104492 101.7616958618164 47.96073532104492 102.2695083618164 Q 48.46854782104492 102.7773208618164 49.15409469604492 103.0693130493164 Q 49.83964157104492 103.3613052368164 50.62675094604492 103.3613052368164 L 53.47050094604492 103.3613052368164 L 53.47050094604492 106.3320083618164 Z M 71.7381591796875 83.3027114868164 Q 70.7987060546875 83.3027114868164 69.9735107421875 83.6581802368164 Q 69.1483154296875 84.0136489868164 68.5389404296875 84.6230239868164 Q 67.9295654296875 85.2323989868164 67.5740966796875 86.0575942993164 Q 67.2186279296875 86.8827896118164 67.2186279296875 87.8222427368164 L 67.2186279296875 106.3320083618164 L 64.0955810546875 106.3320083618164 L 64.0955810546875 80.3320083618164 L 65.1365966796875 80.3320083618164 L 66.8377685546875 82.9726333618164 Q 67.9041748046875 81.5253677368164 69.5164794921875 80.6747817993164 Q 71.1287841796875 79.8241958618164 73.0330810546875 79.8241958618164 L 74.8612060546875 79.8241958618164 L 74.8612060546875 83.3027114868164 Z M 84.71257781982422 74.0859146118164 L 84.71257781982422 69.9218521118164 L 88.34343719482422 69.9218521118164 L 88.34343719482422 74.0859146118164 Z M 84.96648406982422 106.3320083618164 L 84.96648406982422 80.3320083618164 L 88.08953094482422 80.3320083618164 L 88.08953094482422 106.3320083618164 Z" transform="matrix(1, 0, 0, 1, 0, 0)" style="fill: rgb(51, 51, 51); white-space: pre;"/>
  <path d="M 115.67301177978516 106.3320083618164 L 105.05973052978516 93.3320083618164 L 115.67301177978516 80.3320083618164 L 119.73551177978516 80.3320083618164 L 108.86832427978516 93.3320083618164 L 119.73551177978516 106.3320083618164 Z M 101.32730865478516 106.3320083618164 L 101.32730865478516 69.9218521118164 L 104.45035552978516 69.9218521118164 L 104.45035552978516 106.3320083618164 Z M 146.15601348876953 99.1972427368164 Q 146.15601348876953 100.7714614868164 145.55933380126953 102.1679458618164 Q 144.96265411376953 103.5644302368164 143.92163848876953 104.6054458618164 Q 142.88062286376953 105.6464614868164 141.48413848876953 106.2431411743164 Q 140.08765411376953 106.8398208618164 138.51343536376953 106.8398208618164 L 136.43140411376953 106.8398208618164 Q 134.85718536376953 106.8398208618164 133.46070098876953 106.2431411743164 Q 132.06421661376953 105.6464614868164 131.02320098876953 104.6054458618164 Q 129.98218536376953 103.5644302368164 129.38550567626953 102.1679458618164 Q 128.78882598876953 100.7714614868164 128.78882598876953 99.1972427368164 L 128.78882598876953 87.4667739868164 Q 128.78882598876953 85.8925552368164 129.38550567626953 84.4960708618164 Q 129.98218536376953 83.0995864868164 131.02320098876953 82.0585708618164 Q 132.06421661376953 81.0175552368164 133.46070098876953 80.4208755493164 Q 134.85718536376953 79.8241958618164 136.43140411376953 79.8241958618164 L 138.51343536376953 79.8241958618164 Q 140.08765411376953 79.8241958618164 141.48413848876953 80.4208755493164 Q 142.88062286376953 81.0175552368164 143.92163848876953 82.0585708618164 Q 144.96265411376953 83.0995864868164 145.55933380126953 84.4960708618164 Q 146.15601348876953 85.8925552368164 146.15601348876953 87.4667739868164 L 146.15601348876953 99.1972427368164 Z M 143.03296661376953 87.2890396118164 Q 143.03296661376953 86.3495864868164 142.67749786376953 85.5243911743164 Q 142.32202911376953 84.6991958618164 141.71265411376953 84.0898208618164 Q 141.10327911376953 83.4804458618164 140.27808380126953 83.1249771118164 Q 139.45288848876953 82.7695083618164 138.51343536376953 82.7695083618164 L 136.43140411376953 82.7695083618164 Q 135.49195098876953 82.7695083618164 134.66675567626953 83.1249771118164 Q 133.84156036376953 83.4804458618164 133.23218536376953 84.0898208618164 Q 132.62281036376953 84.6991958618164 132.26734161376953 85.5243911743164 Q 131.91187286376953 86.3495864868164 131.91187286376953 87.2890396118164 L 131.91187286376953 99.3749771118164 Q 131.91187286376953 100.3144302368164 132.26734161376953 101.1396255493164 Q 132.62281036376953 101.9648208618164 133.23218536376953 102.5741958618164 Q 133.84156036376953 103.1835708618164 134.66675567626953 103.5390396118164 Q 135.49195098876953 103.8945083618164 136.43140411376953 103.8945083618164 L 138.51343536376953 103.8945083618164 Q 139.45288848876953 103.8945083618164 140.27808380126953 103.5390396118164 Q 141.10327911376953 103.1835708618164 141.71265411376953 102.5741958618164 Q 142.32202911376953 101.9648208618164 142.67749786376953 101.1396255493164 Q 143.03296661376953 100.3144302368164 143.03296661376953 99.3749771118164 Z" transform="matrix(1, 0, 0, 1, 0, 0)" style="fill: rgb(251, 197, 95); white-space: pre;"/>
  <path d="M 158.36361694335938 106.3320083618164 L 158.36361694335938 69.9218521118164 L 161.48666381835938 69.9218521118164 L 161.48666381835938 106.3320083618164 Z" transform="matrix(1, 0, 0, 1, 0, 0)" style="fill: rgb(149, 92, 255); white-space: pre;"/>
  <path d="M 191.0506134033203 99.1972427368164 Q 191.0506134033203 100.7714614868164 190.4539337158203 102.1679458618164 Q 189.8572540283203 103.5644302368164 188.8162384033203 104.6054458618164 Q 187.7752227783203 105.6464614868164 186.3787384033203 106.2431411743164 Q 184.9822540283203 106.8398208618164 183.4080352783203 106.8398208618164 L 181.3260040283203 106.8398208618164 Q 179.7517852783203 106.8398208618164 178.3553009033203 106.2431411743164 Q 176.9588165283203 105.6464614868164 175.9178009033203 104.6054458618164 Q 174.8767852783203 103.5644302368164 174.2801055908203 102.1679458618164 Q 173.6834259033203 100.7714614868164 173.6834259033203 99.1972427368164 L 173.6834259033203 87.4667739868164 Q 173.6834259033203 85.8925552368164 174.2801055908203 84.4960708618164 Q 174.8767852783203 83.0995864868164 175.9178009033203 82.0585708618164 Q 176.9588165283203 81.0175552368164 178.3553009033203 80.4208755493164 Q 179.7517852783203 79.8241958618164 181.3260040283203 79.8241958618164 L 183.4080352783203 79.8241958618164 Q 184.9822540283203 79.8241958618164 186.3787384033203 80.4208755493164 Q 187.7752227783203 81.0175552368164 188.8162384033203 82.0585708618164 Q 189.8572540283203 83.0995864868164 190.4539337158203 84.4960708618164 Q 191.0506134033203 85.8925552368164 191.0506134033203 87.4667739868164 L 191.0506134033203 99.1972427368164 Z M 187.9275665283203 87.2890396118164 Q 187.9275665283203 86.3495864868164 187.5720977783203 85.5243911743164 Q 187.2166290283203 84.6991958618164 186.6072540283203 84.0898208618164 Q 185.9978790283203 83.4804458618164 185.1726837158203 83.1249771118164 Q 184.3474884033203 82.7695083618164 183.4080352783203 82.7695083618164 L 181.3260040283203 82.7695083618164 Q 180.3865509033203 82.7695083618164 179.5613555908203 83.1249771118164 Q 178.7361602783203 83.4804458618164 178.1267852783203 84.0898208618164 Q 177.5174102783203 84.6991958618164 177.1619415283203 85.5243911743164 Q 176.8064727783203 86.3495864868164 176.8064727783203 87.2890396118164 L 176.8064727783203 99.3749771118164 Q 176.8064727783203 100.3144302368164 177.1619415283203 101.1396255493164 Q 177.5174102783203 101.9648208618164 178.1267852783203 102.5741958618164 Q 178.7361602783203 103.1835708618164 179.5613555908203 103.5390396118164 Q 180.3865509033203 103.8945083618164 181.3260040283203 103.8945083618164 L 183.4080352783203 103.8945083618164 Q 184.3474884033203 103.8945083618164 185.1726837158203 103.5390396118164 Q 185.9978790283203 103.1835708618164 186.6072540283203 102.5741958618164 Q 187.2166290283203 101.9648208618164 187.5720977783203 101.1396255493164 Q 187.9275665283203 100.3144302368164 187.9275665283203 99.3749771118164 Z" transform="matrix(1, 0, 0, 1, 0, 0)" style="fill: rgb(106, 213, 255); white-space: pre;"/>
  <path d="M 180.71115112304688 183.14341735839844 Q 180.71115112304688 187.35826110839844 179.89865112304688 191.01451110839844 Q 179.08615112304688 194.67076110839844 177.63888549804688 197.84458923339844 Q 176.19161987304688 201.01841735839844 174.19845581054688 203.72251892089844 Q 172.20529174804688 206.42662048339844 169.84396362304688 208.73716735839844 L 168.01583862304688 206.90904235839844 Q 170.12326049804688 204.75083923339844 171.87521362304688 202.13560485839844 Q 173.62716674804688 199.52037048339844 174.89669799804688 196.51158142089844 Q 176.16622924804688 193.50279235839844 176.87716674804688 190.15122985839844 Q 177.58810424804688 186.79966735839844 177.58810424804688 183.14341735839844 Q 177.58810424804688 179.48716735839844 176.87716674804688 176.13560485839844 Q 176.16622924804688 172.78404235839844 174.89669799804688 169.77525329589844 Q 173.62716674804688 166.76646423339844 171.87521362304688 164.15122985839844 Q 170.12326049804688 161.53599548339844 168.01583862304688 159.37779235839844 L 169.84396362304688 157.54966735839844 Q 172.20529174804688 159.86021423339844 174.19845581054688 162.56431579589844 Q 176.19161987304688 165.26841735839844 177.63888549804688 168.42955017089844 Q 179.08615112304688 171.59068298339844 179.89865112304688 175.24693298339844 Q 180.71115112304688 178.90318298339844 180.71115112304688 183.14341735839844 Z" transform="matrix(0, 1, -1, 0, 343.4206848144531, -54.96952819824219)" style="fill: rgb(51, 51, 51); white-space: pre;"/>
</svg>